<svg width="530" height="115" viewBox="0 0 530 115" fill="none" xmlns="http://www.w3.org/2000/svg">
<g clip-path="url(#clip0_618_1391)">
<path fill-rule="evenodd" clip-rule="evenodd" d="M504.379 44.3694V42.4095C507.809 42.5995 509.939 42.7194 510.789 42.7794C513.879 42.8994 515.959 42.9695 517.029 42.9695C517.389 42.9695 518.969 42.9094 521.749 42.7794C524.539 42.6594 527.169 42.5295 529.619 42.4095V44.5494C526.949 44.5494 525.139 44.6895 524.169 44.9795C523.189 45.2595 522.459 45.8295 521.979 46.6895C520.989 48.5995 520.489 55.9095 520.489 68.5995C520.489 77.3495 520.509 82.8795 520.519 85.1995C520.539 87.5295 520.609 90.0094 520.739 92.6494C520.819 94.7794 520.999 96.2795 521.269 97.1695C521.529 98.0495 522.259 98.7095 523.459 99.1595C524.669 99.5895 526.589 99.8294 529.249 99.8594L529.059 101.629C528.639 101.629 527.799 101.599 526.549 101.549C525.289 101.499 523.989 101.469 522.639 101.439C521.289 101.409 520.249 101.379 519.519 101.359C518.789 101.339 517.949 101.339 517.019 101.339C515.689 101.339 514.569 101.339 513.669 101.359C512.789 101.379 511.589 101.409 510.099 101.439C508.629 101.469 507.279 101.499 506.079 101.549C504.879 101.599 504.169 101.629 503.919 101.629L503.829 99.8594C507.119 99.6694 509.339 99.2995 510.489 98.7295C511.649 98.1595 512.449 97.2195 512.859 95.9495C513.469 94.2995 513.839 91.2194 514.009 86.6494C514.179 82.0694 514.259 77.2595 514.259 72.1995C514.259 67.6195 514.119 61.0394 513.829 52.4594C513.749 50.0894 513.519 48.3895 513.129 47.3895C512.759 46.3695 511.899 45.6195 510.589 45.1395C509.259 44.6595 507.189 44.3994 504.399 44.3594L504.379 44.3694ZM501.319 72.5794V74.3495C500.139 74.7395 499.399 75.0295 499.069 75.2195C498.759 75.4195 498.479 75.8394 498.229 76.4594C498.089 76.8494 497.979 77.3795 497.939 78.0395C497.889 78.6895 497.859 79.6795 497.829 80.9995C497.799 82.3195 497.779 84.7895 497.779 88.4195C497.779 91.0895 497.839 92.9795 497.969 94.1295C498.089 95.2595 498.279 96.0494 498.529 96.4894C498.789 96.9194 499.229 97.3894 499.829 97.8994L499.379 98.9195C498.879 98.9495 496.789 99.3494 493.049 100.149C490.569 100.629 488.189 101.019 485.909 101.309C483.639 101.599 481.829 101.789 480.459 101.869C479.089 101.949 477.479 101.989 475.629 101.989C470.029 101.989 465.139 101.119 460.979 99.3994C456.839 97.6794 453.409 95.3294 450.709 92.3694C448.009 89.4194 446.039 86.2095 444.799 82.7295C443.559 79.2695 442.939 75.7594 442.939 72.2094C442.939 67.5694 443.889 63.3295 445.779 59.4995C447.669 55.6695 450.259 52.4395 453.549 49.8195C456.859 47.1995 460.579 45.2295 464.749 43.9095C468.909 42.5895 473.189 41.9395 477.599 41.9395C479.259 41.9395 480.859 42.0495 482.389 42.2495C483.929 42.4695 485.259 42.6995 486.409 42.9495C487.569 43.1995 488.319 43.3795 488.639 43.5095C489.939 44.0795 490.799 44.3594 491.179 44.3594C492.789 42.9894 493.709 42.3094 493.959 42.3094C494.379 42.3094 494.599 42.8794 494.599 44.0494C494.599 44.9194 494.799 46.7994 495.199 49.6794C495.599 52.5494 495.809 54.5194 495.809 55.5894C495.809 56.0394 495.619 56.2694 495.269 56.2694C495.009 56.2694 494.819 56.2195 494.759 56.1295C494.679 56.0395 494.539 55.7394 494.329 55.2094C493.209 52.5994 491.119 50.1694 488.029 47.8694C484.959 45.5894 480.769 44.4395 475.459 44.4395C470.429 44.4395 465.979 45.6995 462.099 48.2295C458.219 50.7595 455.259 54.0995 453.189 58.2195C451.129 62.3495 450.099 66.6095 450.099 71.0095C450.099 74.1095 450.689 77.3295 451.849 80.5995C453.009 83.8895 454.779 86.9895 457.159 89.9095C459.529 92.8295 462.439 95.1495 465.829 96.8795C469.239 98.5995 472.979 99.4695 477.079 99.4695C480.529 99.4695 483.459 98.9894 485.859 98.0294C488.259 97.0494 489.829 96.1195 490.559 95.2195C490.899 94.7995 491.099 94.1295 491.199 93.2295C491.289 92.3095 491.339 89.9895 491.339 86.1995C491.339 82.4095 491.199 79.9594 490.909 78.5194C490.629 77.0594 489.929 76.0994 488.849 75.6194C487.759 75.1394 485.819 74.8895 483.029 74.8895C481.849 74.8895 480.899 74.9494 480.169 75.0794L480.359 73.1194C484.529 73.0894 488.429 73.0395 492.009 72.9795C495.589 72.9195 498.699 72.7794 501.309 72.5594L501.319 72.5794ZM416.929 44.3694V42.4095C420.359 42.5995 422.489 42.7194 423.339 42.7794C426.429 42.8994 428.509 42.9695 429.579 42.9695C429.939 42.9695 431.519 42.9094 434.299 42.7794C437.089 42.6594 439.719 42.5295 442.169 42.4095V44.5494C439.499 44.5494 437.689 44.6895 436.719 44.9795C435.739 45.2595 435.009 45.8295 434.529 46.6895C433.539 48.5995 433.039 55.9095 433.039 68.5995C433.039 77.3495 433.059 82.8795 433.069 85.1995C433.089 87.5295 433.159 90.0094 433.289 92.6494C433.369 94.7794 433.549 96.2795 433.819 97.1695C434.079 98.0495 434.809 98.7095 436.009 99.1595C437.219 99.5895 439.139 99.8294 441.799 99.8594L441.609 101.629C441.189 101.629 440.349 101.599 439.099 101.549C437.839 101.499 436.539 101.469 435.189 101.439C433.839 101.409 432.799 101.379 432.069 101.359C431.339 101.339 430.499 101.339 429.569 101.339C428.239 101.339 427.119 101.339 426.219 101.359C425.339 101.379 424.139 101.409 422.649 101.439C421.179 101.469 419.829 101.499 418.629 101.549C417.439 101.599 416.719 101.629 416.469 101.629L416.379 99.8594C419.669 99.6694 421.889 99.2995 423.039 98.7295C424.199 98.1595 424.999 97.2195 425.409 95.9495C426.019 94.2995 426.389 91.2194 426.559 86.6494C426.729 82.0694 426.809 77.2595 426.809 72.1995C426.809 67.6195 426.669 61.0394 426.379 52.4594C426.299 50.0894 426.069 48.3895 425.679 47.3895C425.309 46.3695 424.449 45.6195 423.139 45.1395C421.809 44.6595 419.739 44.3994 416.949 44.3594L416.929 44.3694ZM410.489 71.4495C410.489 65.6795 409.119 60.7294 406.409 56.5794C403.679 52.4394 400.199 49.2994 395.949 47.1794C391.709 45.0494 387.369 43.9995 382.919 43.9995C378.469 43.9995 374.619 44.7894 371.109 46.3694C370.799 48.0594 370.569 53.1194 370.409 61.5594C370.259 69.9894 370.179 77.2595 370.179 83.3495C370.179 83.5995 370.199 84.7495 370.239 86.7595C370.289 88.7895 370.329 90.8595 370.379 92.9395C370.429 95.0195 370.459 96.1995 370.459 96.5095C373.519 97.4895 375.859 98.1695 377.499 98.5395C379.129 98.9295 381.189 99.1094 383.679 99.1094C389.949 99.1094 395.099 97.7394 399.099 95.0294C403.119 92.3094 406.019 88.8495 407.799 84.6295C409.579 80.4095 410.479 76.0195 410.479 71.4395L410.489 71.4495ZM357.329 45.1194C359.829 45.0294 361.469 45.5495 362.249 46.6995C362.889 47.7595 363.309 50.4694 363.519 54.8294C363.739 59.2094 363.849 65.8194 363.849 74.7094C363.849 88.0894 363.479 95.6094 362.719 97.2694C362.049 98.6794 360.099 99.3994 356.869 99.3994V101.169L361.319 101.259C361.919 101.259 363.039 101.229 364.659 101.179C366.289 101.129 367.979 101.099 369.749 101.069C371.529 101.039 372.879 101.009 373.799 100.989C374.729 100.979 375.789 100.979 376.969 100.979C377.299 100.979 378.459 101.009 380.459 101.069C382.459 101.129 383.659 101.159 384.059 101.159C390.779 101.159 396.769 99.8595 402.029 97.2295C407.289 94.6095 411.339 91.0195 414.159 86.4795C416.999 81.9295 418.409 76.9094 418.409 71.3994C418.409 66.8494 417.489 62.7594 415.659 59.1094C413.829 55.4494 411.299 52.3594 408.089 49.8094C404.879 47.2694 401.219 45.3094 397.089 43.9594C392.979 42.6094 388.659 41.9395 384.149 41.9395C381.929 41.9395 379.809 42.0794 377.739 42.3394C372.199 43.0094 365.359 43.3294 357.239 43.3294L357.329 45.0995V45.1194Z" fill="#B27369"/>
<path fill-rule="evenodd" clip-rule="evenodd" d="M337.98 101.36V99.8698C339.37 99.6198 340.47 99.3098 341.31 98.9098C342.15 98.5198 342.55 97.8598 342.55 96.9098C342.55 96.0298 342.29 94.7598 341.73 93.0998C341.19 91.4298 340.77 90.2798 340.49 89.6498C337.45 81.4398 334.96 74.2498 333.81 71.9898L330.56 63.6298C330.2 62.7198 329.52 61.0598 328.52 58.6798C327.51 56.2798 326.79 54.6598 326.34 53.7698C325.75 55.0398 325.26 56.1998 324.85 57.2498C324.43 58.2998 324 59.3698 323.53 60.4698L318.35 73.7298C315.15 82.3998 317.99 74.2898 312.13 89.0998C310.68 92.5998 309.93 94.7798 309.93 95.6498C309.93 96.6998 310.41 97.5698 311.37 98.2798C312.31 98.9798 314.26 99.5298 317.19 99.9498V101.44C313.66 101.07 310.64 100.88 308.17 100.88C305.7 100.88 302.88 101 299.92 101.25V99.9498C301.73 99.4998 303.12 98.7698 304.08 97.8098C304.81 97.1598 305.77 95.6598 306.96 93.2898C308.15 90.9098 309.37 88.3198 310.6 85.5398C311.82 82.7398 312.7 80.5598 313.25 78.9898L320.49 61.6298C321.4 59.5398 322.33 57.3598 323.28 55.0798C324.24 52.7898 325.14 50.4998 325.99 48.2098C326.83 45.9198 327.44 44.0598 327.85 42.6898C327.85 42.2898 327.94 42.0098 328.11 41.8198L329.7 41.6298C330.63 44.9898 331.67 48.2098 332.79 51.2998L342.35 76.8598C344.81 83.2398 346.67 87.9598 347.92 90.9998C349.19 94.0298 350.27 96.2198 351.18 97.5098C351.94 98.6198 353.52 99.3098 355.9 99.5498V101.13C353.42 100.88 351.04 100.76 348.75 100.76C346.94 100.76 345.25 100.81 343.71 100.9C342.15 100.99 340.93 101.07 340.03 101.15C339.12 101.23 338.44 101.29 337.99 101.32L337.98 101.36ZM204.07 14.7998C205.34 15.0998 206.39 15.4098 207.45 15.7598L207.68 15.8298C208.69 16.1798 209.72 16.5598 210.95 17.0098C213.63 17.9798 215.22 17.6698 215.34 17.6498C215.94 17.5198 216.37 17.3298 216.67 17.1798C217.07 16.9798 217.62 16.8598 218.29 16.9798C218.69 17.0498 219.1 17.2498 219.57 17.7598L218.12 23.4098C216.73 28.3798 215.55 34.6698 214.5 42.3498C213.28 42.1498 212.47 41.7398 212.06 41.1298C211.65 40.4898 211.45 39.4698 211.45 38.0798C211.37 35.5098 211.64 32.3198 211.61 29.9098C211.58 27.6198 211.13 25.1898 209.44 23.5198C208.5 22.5898 207.2 21.6998 205.7 20.8998C203.72 19.9598 201.72 19.1098 199.62 18.4598C198.33 17.9598 196.83 17.5798 195.09 17.3398C194.93 17.3198 194.76 17.2998 194.6 17.2698C192.73 16.9598 190.86 16.8098 188.98 16.8098C182.59 16.8098 176.81 18.3998 171.65 21.5598C168.04 23.7798 164.96 26.7098 162.42 30.3498C156.32 37.6198 152.61 47.2898 152.61 57.9098C152.61 80.5098 169.45 98.8298 190.22 98.8298C190.67 98.8298 191.13 98.8298 191.58 98.7998C196.38 98.7998 200.36 97.9998 203.52 96.4298C206.66 94.8398 209.14 92.9498 210.93 90.7698C212.73 88.5598 214.48 85.9298 216.16 82.8598C216.82 81.5598 217.41 80.9298 217.89 80.9298C218.73 80.9298 219.16 81.3398 219.16 82.1398C219.16 82.7098 218.75 84.4798 217.91 87.4598C217.68 88.0298 216.75 91.3298 215.07 97.3098C210.27 98.7398 205.93 99.8598 202.02 100.63C198.11 101.43 193.86 101.81 189.29 101.81C183.79 101.81 178.28 100.83 172.76 98.8798C167.26 96.9198 162.3 94.0398 157.91 90.1898C153.52 86.3498 150.02 81.6598 147.45 76.1098C144.88 70.5798 143.58 64.2898 143.58 57.2398C143.58 47.5498 145.97 39.3898 150.74 32.7298C155.52 26.0698 161.59 21.1598 168.98 17.9898C176.37 14.8298 184.01 13.2598 191.86 13.2598C196.08 13.2598 200.08 13.7798 204.08 14.7798L204.07 14.7998ZM254.42 101.36C254.87 101.33 255.55 101.27 256.46 101.19C257.36 101.11 258.58 101.03 260.14 100.94C261.69 100.85 263.37 100.8 265.18 100.8C267.47 100.8 269.85 100.92 272.33 101.17V99.5898C269.95 99.3398 268.37 98.6598 267.61 97.5498C266.7 96.2498 265.61 94.0698 264.34 91.0398C263.09 87.9898 261.23 83.2698 258.77 76.8998L249.21 51.3398C248.08 48.2498 247.04 45.0298 246.11 41.6698L244.52 41.8598C244.35 42.0498 244.26 42.3198 244.26 42.7298C243.86 44.1098 243.24 45.9598 242.4 48.2498C241.55 50.5398 240.65 52.8298 239.69 55.1198C238.75 57.3898 237.82 59.5798 236.91 61.6698L229.67 79.0298C229.13 80.5898 228.25 82.7698 227.02 85.5798C225.8 88.3598 224.58 90.9498 223.38 93.3298C222.19 95.6998 221.23 97.1998 220.5 97.8498C219.54 98.8098 218.15 99.5398 216.34 99.9898V101.29C219.3 101.04 222.05 100.92 224.59 100.92C227.13 100.92 230.08 101.11 233.61 101.48V99.9898C230.69 99.5698 228.74 99.0198 227.79 98.3198C226.83 97.6098 226.35 96.7398 226.35 95.6898C226.35 94.8198 227.09 92.6398 228.55 89.1398C234.41 74.3298 231.57 82.4398 234.77 73.7698L239.95 60.5098C240.41 59.4098 240.85 58.3398 241.27 57.2898C241.67 56.2398 242.17 55.0798 242.76 53.8098C243.21 54.6898 243.94 56.3198 244.94 58.7198C245.95 61.0998 246.63 62.7598 246.98 63.6698L250.23 72.0298C251.39 74.2798 253.87 81.4798 256.91 89.6898C257.19 90.3198 257.61 91.4698 258.15 93.1398C258.71 94.7998 258.97 96.0598 258.97 96.9498C258.97 97.8898 258.57 98.5598 257.73 98.9498C256.89 99.3498 255.8 99.6598 254.4 99.9098V101.4L254.42 101.36ZM289.09 98.5798C285.82 100.93 281.96 102.14 275.75 101.71C277.69 101.95 279.6 102.02 281.47 101.92C285.84 101.68 289.55 101.24 292.57 99.8798C298.2 97.3498 301.64 92.7298 301.64 86.4598C301.64 83.0398 300.77 80.1798 299.03 77.8598C297.28 75.5398 295.29 73.7598 293.06 72.5398C290.83 71.3198 287.88 69.9898 284.19 68.5498C280.92 67.2798 278.39 66.1998 276.59 65.2898C274.8 64.3798 273.28 63.1098 272.07 61.4998C270.86 59.8898 270.26 57.8598 270.26 55.4198C270.26 52.9798 271.06 50.6198 272.69 48.0098C274.3 45.3898 277.61 44.0898 282.62 44.0898C284.68 44.0898 286.81 44.3998 289.06 45.0298C291.29 45.6598 293.3 46.8698 295.08 48.6198C296.86 50.3798 297.87 52.7998 298.11 55.8798L299.5 55.7898C299.53 55.4698 299.35 53.4698 298.96 49.8198C298.99 49.6698 299.02 49.3598 299.05 48.9098C299.08 48.4598 299.13 47.8298 299.2 47.0098C299.28 46.1898 299.35 45.4498 299.43 44.7698C299.51 44.0898 299.58 43.4098 299.68 42.7098C299.31 42.5898 299 42.5198 298.75 42.5198L298.38 42.7098C297.47 43.3298 296.57 43.6398 295.66 43.6398C295.37 43.6398 294.59 43.5198 293.35 43.2698C290.27 42.5898 287.14 42.2498 283.97 42.2498C277.75 42.2498 272.97 43.7698 269.61 46.8098C266.25 49.8398 264.58 53.6498 264.58 58.2098C264.58 61.0898 265.26 63.5198 266.62 65.5098C267.98 67.5098 269.81 69.1798 272.13 70.5398C274.44 71.8998 277.38 73.2298 280.95 74.5298C283.52 75.4998 285.64 76.2998 287.22 77.1098C295.65 81.4598 297.93 92.2398 289.08 98.5998L289.09 98.5798Z" fill="#B27369"/>
<path fill-rule="evenodd" clip-rule="evenodd" d="M83.7095 85.4302C83.7995 84.6702 83.8195 84.4202 83.8995 83.5002C83.6195 83.5002 83.3295 83.5002 83.0395 83.5002C80.7095 83.5002 78.7595 83.3202 77.2295 82.9602C75.6795 82.6102 73.4795 81.9702 70.6095 81.0502C70.6095 80.7602 70.5795 79.6502 70.5395 77.6902C70.4995 75.7302 70.4495 73.7902 70.4095 71.8802C70.3695 69.9802 70.3495 68.9003 70.3495 68.6703C70.3495 63.7403 70.3995 57.9703 70.5095 51.3903C68.7695 51.3603 66.8395 51.2802 64.3395 51.2802C64.3695 54.0002 64.3895 57.0903 64.3895 60.5403C64.3895 73.1203 64.0395 80.1903 63.3195 81.7603C62.6995 83.0603 60.9195 83.7303 57.9795 83.7603C55.0395 83.7403 53.2595 83.0703 52.6395 81.7603C52.1295 80.6503 51.7995 76.7502 51.6595 70.0002C49.6895 69.9902 47.2895 69.9802 45.5995 70.0002C45.5995 70.4902 45.5795 71.1202 45.5595 71.8802C45.5195 73.7902 45.4695 75.7302 45.4295 77.6902C45.3895 79.6502 45.3595 80.7502 45.3595 81.0502C42.4895 81.9702 40.2795 82.6102 38.7395 82.9602C37.2095 83.3202 35.2695 83.5002 32.9295 83.5002C27.0395 83.5002 22.1895 82.2202 18.4295 79.6602C14.6495 77.1102 11.9195 73.8502 10.2395 69.8802C8.55953 65.9102 7.71953 61.7803 7.71953 57.4803C7.71953 52.0503 8.99952 47.4002 11.5595 43.5002C14.1295 39.6002 17.3995 36.6602 21.3895 34.6602C24.2695 33.2102 27.1995 32.2902 30.1895 31.9002C30.1995 30.8802 30.2195 30.5002 30.2495 29.8002C26.8095 29.9802 23.5095 30.5903 20.3195 31.6403C16.4395 32.9103 12.9995 34.7503 9.96953 37.1403C6.94953 39.5303 4.56953 42.4402 2.84953 45.8802C1.12953 49.3102 0.269531 53.1602 0.269531 57.4402C0.269531 62.6202 1.59953 67.3502 4.26953 71.6202C6.92953 75.9002 10.7295 79.2703 15.6795 81.7303C20.6295 84.2003 26.2595 85.4203 32.5795 85.4203C32.9595 85.4203 34.0795 85.3902 35.9695 85.3302C37.8495 85.2702 38.9495 85.2402 39.2495 85.2402C40.3595 85.2402 41.3495 85.2402 42.2295 85.2502C43.0895 85.2602 44.3595 85.2903 46.0395 85.3203C47.6995 85.3503 49.2895 85.3803 50.8295 85.4203C52.3495 85.4603 53.3995 85.4902 53.9695 85.4902L57.9995 85.4102L62.0295 85.4902C62.5995 85.4902 63.6495 85.4603 65.1695 85.4203C66.6995 85.3803 68.2895 85.3503 69.9595 85.3203C71.6395 85.2903 72.9095 85.2602 73.7695 85.2502C74.6495 85.2402 75.6395 85.2402 76.7495 85.2402C77.0595 85.2402 78.1495 85.2702 80.0295 85.3302C81.9095 85.3902 83.0395 85.4203 83.4195 85.4203C83.5295 85.4203 83.6395 85.4203 83.7395 85.4203L83.7095 85.4302ZM85.7995 85.3702C85.8495 84.7302 85.8495 84.3702 85.8695 83.4002C90.4995 83.0502 94.3995 81.8003 97.5395 79.6703C101.32 77.1203 104.05 73.8603 105.73 69.8903C107.41 65.9203 108.25 61.7902 108.25 57.4902C108.25 52.0602 106.97 47.4103 104.41 43.5103C101.84 39.6103 98.5695 36.6703 94.5795 34.6703C90.5995 32.6703 86.5095 31.6802 82.3195 31.6802C78.1295 31.6802 74.5095 32.4202 71.2195 33.9102C70.9695 35.2702 70.7695 38.9502 70.6295 44.9702C68.3595 45.0802 66.6395 45.0602 64.2095 45.1202C64.1695 43.9202 64.1295 42.8302 64.0795 41.8602C63.8795 37.7602 63.4795 35.2102 62.8795 34.2102C62.1895 33.1802 60.3495 32.6902 58.1495 32.7102H57.9795H57.8095C55.6095 32.6802 53.7795 33.1802 53.0795 34.2102C52.4795 35.2002 52.0895 37.7602 51.8795 41.8602C51.6795 45.9702 51.5695 52.1902 51.5695 60.5502C51.5695 61.7602 51.5695 62.9202 51.5695 64.0302C49.5395 64.0302 47.4695 63.9702 45.5895 63.9702C45.5595 59.3102 45.4895 54.0502 45.3895 48.1902C45.2395 40.2502 45.0195 35.5002 44.7295 33.9002C41.4295 32.4102 37.7295 31.6703 33.6295 31.6703C33.1195 31.6703 32.6095 31.6802 32.1095 31.7102C32.1195 31.0602 32.1495 30.4202 32.1995 29.7402C32.2895 29.7402 32.3795 29.7402 32.4695 29.7402C34.5595 29.7402 36.5595 29.8702 38.4995 30.1202C43.6495 30.7402 50.4395 31.0502 57.9595 31.0502C65.4895 31.0502 72.2695 30.7402 77.4195 30.1202C79.3595 29.8702 81.3595 29.7402 83.4495 29.7402C87.6995 29.7402 91.7495 30.3703 95.6195 31.6403C99.4995 32.9103 102.94 34.7503 105.97 37.1403C108.99 39.5303 111.37 42.4402 113.09 45.8802C114.81 49.3102 115.67 53.1602 115.67 57.4402C115.67 62.6202 114.34 67.3502 111.67 71.6202C109.01 75.9002 105.21 79.2703 100.26 81.7303C95.9495 83.8803 91.1195 85.0802 85.7795 85.3602L85.7995 85.3702Z" fill="#B27369"/>
<path fill-rule="evenodd" clip-rule="evenodd" d="M32.2189 85.4308C31.4989 85.4308 30.9189 85.4009 30.2489 85.3809C30.5189 90.7609 31.7289 95.6108 33.8789 99.9308C36.3489 104.881 39.7189 108.681 43.9889 111.341C48.2689 114.011 52.9889 115.341 58.1689 115.341C62.4489 115.341 66.2989 114.481 69.7289 112.761C73.1689 111.041 76.0789 108.661 78.4689 105.641C80.8589 102.621 82.6989 99.1809 83.9689 95.2909C85.0089 92.1109 85.6189 88.8008 85.8089 85.3708C85.8389 84.6408 85.8689 83.9808 85.8689 83.4008V83.1208C85.8689 81.0308 85.7389 79.0309 85.4889 77.0909C84.8689 71.9409 84.5589 65.1509 84.5589 57.6309C84.5589 50.1009 84.8689 43.3209 85.4889 38.1709C85.7389 36.2309 85.8689 34.2309 85.8689 32.1409C85.8689 32.0609 85.8689 31.9909 85.8689 31.9109C85.2189 31.8209 84.5489 31.7609 83.8989 31.7209C83.9289 32.2409 83.9489 32.7709 83.9489 33.2909C83.9489 37.3909 83.2089 41.1009 81.7189 44.3909C80.1289 44.6809 75.3689 44.9008 67.4389 45.0508C61.6389 45.1608 56.4189 45.2209 51.7889 45.2509C51.7389 47.1109 51.7089 49.1009 51.6789 51.2309C52.7589 51.2309 53.8989 51.2309 55.0789 51.2309C63.4389 51.2309 69.6589 51.3309 73.7689 51.5409C77.8689 51.7409 80.4189 52.1408 81.4189 52.7408C82.4489 53.4308 82.9389 55.2709 82.9189 57.4709V57.6508V57.8209C82.9489 60.0209 82.4489 61.8508 81.4189 62.5508C80.4289 63.1508 77.8689 63.5409 73.7689 63.7509C72.7589 63.8009 71.6289 63.8409 70.3689 63.8809C70.3589 65.5609 70.3489 67.1709 70.3489 68.7009C70.3489 68.8609 70.3489 69.3909 70.3689 70.2909C76.5489 70.4309 80.3289 70.6309 81.7089 70.8909C83.1989 74.1909 83.9389 77.8908 83.9389 81.9908C83.9389 82.5008 83.9289 83.0109 83.8989 83.5109C83.8389 84.2809 83.7989 84.6809 83.7189 85.4409C83.3189 88.4309 82.3989 91.3608 80.9589 94.2408C78.9589 98.2408 76.0089 101.511 72.1189 104.071C68.2189 106.621 63.5689 107.911 58.1389 107.911C53.8389 107.911 49.7089 107.061 45.7389 105.391C41.7689 103.711 38.5189 100.981 35.9589 97.2009C33.8089 94.0409 32.5689 90.1109 32.2189 85.4409V85.4308ZM32.1289 83.4908C31.5789 83.4808 30.8189 83.4608 30.1989 83.4008C30.1989 83.2808 30.1989 83.1609 30.1989 83.0309C30.1989 82.6509 30.2289 81.5309 30.2889 79.6409C30.3489 77.7609 30.3789 76.6608 30.3789 76.3608C30.3789 75.2508 30.3789 74.2609 30.3689 73.3809C30.3589 72.5209 30.3289 71.2509 30.2989 69.5709C30.2689 67.9109 30.2389 66.3209 30.1989 64.7809C30.1589 63.2609 30.1289 62.2109 30.1289 61.6409L30.2089 57.6108L30.1289 53.5808C30.1289 53.0108 30.1589 51.9609 30.1989 50.4409C30.2389 48.9109 30.2689 47.3208 30.2989 45.6508C30.3289 43.9708 30.3589 42.7009 30.3689 41.8409C30.3789 40.9609 30.3789 39.9708 30.3789 38.8608C30.3789 38.5508 30.3489 37.4608 30.2889 35.5808C30.2289 33.7008 30.1989 32.5709 30.1989 32.1909C30.1989 25.8709 31.4289 20.2408 33.8889 15.2908C36.3589 10.3408 39.7289 6.54086 43.9989 3.88086C48.2789 1.21086 52.9989 -0.119141 58.1789 -0.119141C62.4589 -0.119141 66.3089 0.740861 69.7389 2.46086C73.1789 4.18086 76.0889 6.56086 78.4789 9.58086C80.8689 12.6009 82.7089 16.0408 83.9789 19.9308C85.0189 23.0808 85.6189 26.3608 85.8089 29.7708C85.1289 29.7308 84.4389 29.7108 83.7089 29.7108C83.3089 26.7508 82.3889 23.8509 80.9589 21.0009C78.9589 17.0009 76.0089 13.7309 72.1189 11.1709C68.2189 8.62085 63.5689 7.33086 58.1389 7.33086C53.8389 7.33086 49.7089 8.18086 45.7389 9.85086C41.7689 11.5309 38.5189 14.2609 35.9589 18.0409C33.4089 21.8009 32.1189 26.6509 32.1189 32.5409C32.1189 34.8709 32.2989 36.8209 32.6589 38.3509C33.0089 39.9009 33.6489 42.1009 34.5689 44.9709C34.8589 44.9709 35.9689 45.0009 37.9289 45.0409C39.8889 45.0809 41.8289 45.1309 43.7389 45.1709C44.3689 45.1809 44.9089 45.2009 45.3589 45.2009C45.3989 47.2209 45.4289 49.2408 45.4689 51.2708C38.8389 51.4208 34.9689 51.7409 33.8589 52.2509C32.5589 52.8709 31.8889 54.6509 31.8589 57.5909C31.8789 60.5309 32.5489 62.3108 33.8589 62.9308C35.4189 63.6408 42.4989 64.0009 55.0789 64.0009C58.5489 64.0009 61.6589 63.9809 64.3889 63.9509C64.3789 66.2209 64.3489 68.2808 64.3089 70.1208C57.6989 70.0108 51.8989 69.9608 46.9489 69.9608C46.7189 69.9608 45.6389 69.9708 43.7389 70.0208C41.8289 70.0608 39.8889 70.1108 37.9289 70.1508C35.9689 70.1908 34.8689 70.2209 34.5689 70.2209C33.6489 73.0909 33.0089 75.3009 32.6589 76.8409C32.2989 78.3709 32.1189 80.3108 32.1189 82.6508C32.1189 82.9208 32.1189 83.1908 32.1189 83.4608L32.1289 83.4908Z" fill="#B27369"/>
</g>
<defs>
<clipPath id="clip0_618_1391">
<rect width="530" height="115" fill="white"/>
</clipPath>
</defs>
</svg>
